<svg width="384" height="384" xmlns="http://www.w3.org/2000/svg" xmlns:svg="http://www.w3.org/2000/svg">
 <g class="layer">
  <title>Layer 1</title>
  <path fill="#ffffff" id="svg_1" d="m192,0c-105.87109,0 -192,86.12891 -192,192s86.12891,192 192,192s192,-86.12891 192,-192s-86.12891,-192 -192,-192zm0,352c-88.22266,0 -160,-71.77734 -160,-160s71.77734,-160 160,-160s160,71.77734 160,160s-71.77734,160 -160,160zm0,0"/>
  <path fill="#ffffff" id="svg_2" d="m224,288l-16,0l0,-128c0,-8.83203 -7.16797,-16 -16,-16l-24,0c-8.83203,0 -16,7.16797 -16,16s7.16797,16 16,16l8,0l0,112l-16,0c-8.83203,0 -16,7.16797 -16,16s7.16797,16 16,16l64,0c8.83203,0 16,-7.16797 16,-16s-7.16797,-16 -16,-16zm0,0"/>
  <path fill="#ffffff" id="svg_3" d="m192,112c13.23047,0 24,-10.76953 24,-24s-10.76953,-24 -24,-24s-24,10.76953 -24,24s10.76953,24 24,24zm0,0"/>
 </g>
</svg>