<svg width="512.001" height="512.001" xmlns="http://www.w3.org/2000/svg" xmlns:svg="http://www.w3.org/2000/svg">
 <g class="layer">
  <title>Layer 1</title>
  <g id="svg_1">
   <g id="svg_2">
    <path fill="#ffffff" id="svg_3" d="m503.839,395.379l-195.7,-338.962c-10.882,-18.848 -30.373,-30.102 -52.139,-30.102c-21.765,0 -41.257,11.254 -52.139,30.102l-195.699,338.961c-10.883,18.85 -10.883,41.356 0,60.205c10.883,18.849 30.373,30.102 52.139,30.102l391.398,0c21.765,0 41.256,-11.254 52.14,-30.101c10.883,-18.85 10.883,-41.356 0,-60.205zm-25.978,45.207c-5.461,9.458 -15.241,15.104 -26.162,15.104l-391.398,0c-10.922,0 -20.702,-5.646 -26.162,-15.104c-5.46,-9.458 -5.46,-20.75 0,-30.208l195.701,-338.962c5.46,-9.458 15.24,-15.104 26.161,-15.104c10.92,0 20.701,5.646 26.161,15.104l195.7,338.962c5.459,9.458 5.459,20.75 -0.001,30.208z"/>
   </g>
  </g>
  <g id="svg_4">
   <g id="svg_5">
    <rect fill="#ffffff" id="svg_6" height="149.982" width="29.996" y="176.01" x="241.001"/>
   </g>
  </g>
  <g id="svg_7">
   <g id="svg_8">
    <path fill="#ffffff" id="svg_9" d="m256,355.99c-11.027,0 -19.998,8.971 -19.998,19.998s8.971,19.998 19.998,19.998c11.026,0 19.998,-8.971 19.998,-19.998s-8.971,-19.998 -19.998,-19.998z"/>
   </g>
  </g>
  <g id="svg_10"/>
  <g id="svg_11"/>
  <g id="svg_12"/>
  <g id="svg_13"/>
  <g id="svg_14"/>
  <g id="svg_15"/>
  <g id="svg_16"/>
  <g id="svg_17"/>
  <g id="svg_18"/>
  <g id="svg_19"/>
  <g id="svg_20"/>
  <g id="svg_21"/>
  <g id="svg_22"/>
  <g id="svg_23"/>
  <g id="svg_24"/>
 </g>
</svg>