<svg width="384" height="384" xmlns="http://www.w3.org/2000/svg" xmlns:svg="http://www.w3.org/2000/svg">
 <g class="layer">
  <title>Layer 1</title>
  <g id="svg_1">
   <g id="svg_2">
    <path fill="#ffffff" id="svg_3" d="m368,176c-8.832,0 -16,7.168 -16,16c0,88.224 -71.776,160 -160,160s-160,-71.776 -160,-160s71.776,-160 160,-160c42.952,0 83.272,16.784 113.536,47.264c6.224,6.264 16.36,6.304 22.624,0.08c6.272,-6.224 6.304,-16.36 0.08,-22.632c-36.312,-36.568 -84.704,-56.712 -136.24,-56.712c-105.872,0 -192,86.128 -192,192s86.128,192 192,192c105.864,0 192,-86.128 192,-192c0,-8.832 -7.168,-16 -16,-16z"/>
   </g>
  </g>
  <g id="svg_4">
   <g id="svg_5">
    <path fill="#ffffff" id="svg_6" d="m214.624,192l36.688,-36.688c6.248,-6.248 6.248,-16.376 0,-22.624s-16.376,-6.248 -22.624,0l-36.688,36.688l-36.688,-36.688c-6.24,-6.248 -16.384,-6.248 -22.624,0c-6.248,6.248 -6.248,16.376 0,22.624l36.688,36.688l-36.688,36.688c-6.248,6.248 -6.248,16.376 0,22.624c3.12,3.128 7.216,4.688 11.312,4.688s8.192,-1.56 11.312,-4.688l36.688,-36.688l36.688,36.688c3.128,3.128 7.216,4.688 11.312,4.688s8.184,-1.56 11.312,-4.688c6.248,-6.248 6.248,-16.376 0,-22.624l-36.688,-36.688z"/>
   </g>
  </g>
  <g id="svg_7"/>
  <g id="svg_8"/>
  <g id="svg_9"/>
  <g id="svg_10"/>
  <g id="svg_11"/>
  <g id="svg_12"/>
  <g id="svg_13"/>
  <g id="svg_14"/>
  <g id="svg_15"/>
  <g id="svg_16"/>
  <g id="svg_17"/>
  <g id="svg_18"/>
  <g id="svg_19"/>
  <g id="svg_20"/>
  <g id="svg_21"/>
 </g>
</svg>