<svg width="384" height="384" xmlns="http://www.w3.org/2000/svg" xmlns:svg="http://www.w3.org/2000/svg">
 <g class="layer">
  <title>Layer 1</title>
  <g id="svg_1">
   <g id="svg_2">
    <path fill="#ffffff" id="svg_3" d="m275.312,140.688c-6.24,-6.248 -16.384,-6.248 -22.624,0l-68.688,68.68l-28.688,-28.68c-6.24,-6.248 -16.384,-6.248 -22.624,0c-6.248,6.248 -6.248,16.376 0,22.624l40,40c3.12,3.128 7.216,4.688 11.312,4.688s8.192,-1.56 11.312,-4.688l80,-80c6.248,-6.248 6.248,-16.376 0,-22.624z"/>
   </g>
  </g>
  <g id="svg_4">
   <g id="svg_5">
    <path fill="#ffffff" id="svg_6" d="m368,176c-8.832,0 -16,7.168 -16,16c0,88.224 -71.776,160 -160,160s-160,-71.776 -160,-160s71.776,-160 160,-160c42.952,0 83.272,16.784 113.544,47.264c6.216,6.28 16.352,6.312 22.624,0.08c6.272,-6.224 6.304,-16.352 0.08,-22.624c-36.32,-36.576 -84.712,-56.72 -136.248,-56.72c-105.872,0 -192,86.128 -192,192s86.128,192 192,192s192,-86.128 192,-192c0,-8.832 -7.168,-16 -16,-16z"/>
   </g>
  </g>
  <g id="svg_7"/>
  <g id="svg_8"/>
  <g id="svg_9"/>
  <g id="svg_10"/>
  <g id="svg_11"/>
  <g id="svg_12"/>
  <g id="svg_13"/>
  <g id="svg_14"/>
  <g id="svg_15"/>
  <g id="svg_16"/>
  <g id="svg_17"/>
  <g id="svg_18"/>
  <g id="svg_19"/>
  <g id="svg_20"/>
  <g id="svg_21"/>
 </g>
</svg>